<svg xmlns="http://www.w3.org/2000/svg" width="768.372" height="255.775" viewBox="0 0 768.372 255.775">
  <g id="Grupo_1100" data-name="Grupo 1100" transform="translate(-197.457 -208.076)">
    <g id="Grupo_1098" data-name="Grupo 1098">
      <path id="Caminho_956" data-name="Caminho 956" d="M843.208,222.355a112.467,112.467,0,0,0-88.955,181.527l36.467-28.429a66.279,66.279,0,0,1,30.222-103.081V395.194h44.533V272.372a66.278,66.278,0,0,1,30.258,103.037l36.566,28.3a112.468,112.468,0,0,0-89.091-181.354" fill="#ff1430"/>
      <path id="Caminho_957" data-name="Caminho 957" d="M954.7,443.166a5.563,5.563,0,1,1,5.563,5.567,5.564,5.564,0,0,1-5.563-5.567m5.563,4.338a4.335,4.335,0,1,0-4.336-4.338,4.334,4.334,0,0,0,4.336,4.338" fill="#ff1430"/>
      <path id="Caminho_958" data-name="Caminho 958" d="M959.174,442.646v-1.417h.883c.471,0,1.119.044,1.119.654,0,.649-.325.763-.9.763Zm0,1h.592l1.354,2.458h1.491l-1.506-2.563a1.37,1.37,0,0,0,1.417-1.528c0-1.341-.9-1.772-2.407-1.772h-2.2V446.1h1.256Z" fill="#ff1430"/>
      <path id="Caminho_959" data-name="Caminho 959" d="M816.37,422.253s-21.26.007-21.438.015q-8.049.217-8.059,7.481V441.01q0,3.955,2.059,5.729c1.374,1.173,3.549,1.764,6.539,1.764l21.39-.013q8.049-.217,8.059-7.48V429.749q0-7.492-8.55-7.5m1.354,8.217v11.64H794.068V428.647h23.656Zm18.257-1.823H857.79c1.236,0,1.847.587,1.847,1.765v1.469a1.615,1.615,0,0,1-1.847,1.812H835.981Zm-7.194,19.747h7.194v-8.3h22.257q8.6,0,8.592-7.506v-2.82q0-7.515-8.584-7.511H828.787Zm49.135-14.475v-3.4a1.644,1.644,0,0,1,1.843-1.87h19.877a1.641,1.641,0,0,1,1.84,1.87v3.4Zm30.754-4.178q0-7.49-7.9-7.488H879.262q-8.535,0-8.537,7.488V448.5h7.2V440.31h23.56V448.5h7.194Zm11.065-1.094h21.818c1.22,0,1.842.587,1.842,1.765v1.469a1.618,1.618,0,0,1-1.842,1.812H919.741Zm-7.189,19.747h7.189v-8.3h13.1l9.413,8.342H949.8c1.987,0,2.858-.024,2.61-.038q-9.6-8.259-9.536-8.318,7.723,0,7.725-7.461v-2.838q0-7.521-8.548-7.524H912.552Zm-178.54.1V422.3h7.332l17.119,17.151,17.255-17.2h7.3v26.238h-7.3V431.309l-17.263,17.146-17.2-17.146v17.182Z" fill="#ff1430"/>
    </g>
    <line id="Linha_1" data-name="Linha 1" y2="255.774" transform="translate(648.31 208.076)" fill="none" stroke="#ff1430" stroke-miterlimit="10" stroke-width="4"/>
    <g id="Grupo_1099" data-name="Grupo 1099">
      <path id="Caminho_960" data-name="Caminho 960" d="M438.24,208.076H362.418V463.384h34.591V348.054h38.142c3.4,21.082,3.706,108.51,3.706,115.33h35.055c1.08-64.8.463-185.552-35.672-255.308m-41.694,110.37V237.219h18.53c6.794,14.261,11.273,35.033,14.052,50.38,2.935,16.741,4.479,30.847,4.479,30.847Z" fill="#ff1430"/>
      <rect id="Retângulo_184" data-name="Retângulo 184" width="37.988" height="255.463" transform="translate(294.784 208.076)" fill="#ff1430"/>
      <path id="Caminho_961" data-name="Caminho 961" d="M197.457,208.077V463.54h37.988V347.9h27.8V318.291h-27.8V237.529h35.672V208.077Z" fill="#ff1430"/>
      <path id="Caminho_962" data-name="Caminho 962" d="M475.131,208.077v29.453h27.178l.155,225.855h37.448V237.529h27.41V208.077Z" fill="#ff1430"/>
    </g>
  </g>
</svg>
